<?xml version="1.0"?>
<svg xmlns="http://www.w3.org/2000/svg" xmlns:xlink="http://www.w3.org/1999/xlink" xmlns:svgjs="http://svgjs.com/svgjs" version="1.1" width="512" height="512" x="0" y="0" viewBox="0 0 512.028 512.028" style="enable-background:new 0 0 512 512" xml:space="preserve" class=""><g><path xmlns="http://www.w3.org/2000/svg" d="m451.514 272.028c11.046 0 20-8.954 20-20v-232c0-11.046-8.954-20-20-20h-310.439c-.188-.005-.372-.028-.561-.028s-.373.023-.561.028h-39.439c-33.084 0-60 26.916-60 60v392c0 33.084 26.916 60 60 60h351c11.046 0 20-8.954 20-20s-8.954-20-20-20h-351c-11.028 0-20-8.972-20-20s8.972-20 20-20h351c11.046 0 20-8.954 20-20v-60c0-11.046-8.954-20-20-20s-20 8.954-20 20v40h-271v-352h271v212c0 11.046 8.954 20 20 20zm-331 120h-20c-7.011 0-13.74 1.22-20 3.44v-335.44c0-11.028 8.972-20 20-20h20zm241-273c11.046 0 20 8.954 20 20s-8.954 20-20 20h-131c-11.046 0-20-8.954-20-20s8.954-20 20-20z" fill="#ffd541" data-original="#000000" class=""/></g></svg>
